<svg xmlns="http://www.w3.org/2000/svg" viewBox="0 0 78.9 31.2"><path d="M9.8 8.6c.8.3 1.4.7 1.9 1.2s.9 1.1 1.1 1.7c.3.6.4 1.3.4 1.9h-3.1c0-.7-.3-1.3-.8-1.8-.5-.3-1.3-.5-2.3-.5-.4 0-.8 0-1.2.1-.4.1-.7.2-1 .4-.3.2-.5.4-.7.6-.2.2-.3.5-.3.8 0 .6.3 1 .9 1.3.6.3 1.5.5 2.8.8 1 .2 1.9.4 2.6.6.8.2 1.4.6 2 .9.5.4 1 .9 1.3 1.4.3.6.4 1.3.4 2.1s-.2 1.5-.5 2.1c-.3.6-.8 1.2-1.4 1.6-.6.4-1.3.8-2.1 1-.8.3-1.7.4-2.8.4-.8 0-1.6-.1-2.4-.4-.8-.2-1.5-.6-2.2-1.1-.6-.5-1.2-1.1-1.5-1.8-.4-.7-.6-1.6-.6-2.6h3.1c0 .5.1.9.3 1.3.2.4.5.7.9.9.4.4.8.5 1.2.7.4.1.8.2 1.3.2.4 0 .9 0 1.3-.1s.8-.2 1.2-.4c.3-.2.6-.4.8-.7.2-.3.3-.6.3-1 0-.2-.1-.5-.2-.7-.1-.2-.3-.4-.6-.6-.3-.2-.7-.4-1.2-.5-.5-.2-1.1-.3-1.9-.4-.8-.1-1.5-.3-2.2-.5-.7-.2-1.4-.5-1.9-.9-.6-.4-1-.8-1.4-1.4-.4-.6-.5-1.3-.5-2.2 0-.7.1-1.4.4-1.9.3-.6.7-1.1 1.3-1.5.6-.4 1.2-.7 2-1 .7-.3 1.6-.4 2.5-.4 1.1 0 2.1.1 2.8.4zM15.8 12.9h3.1v12.2h-3.1zM33.1 24.4c0 1-.1 1.9-.4 2.7-.3.8-.7 1.5-1.3 2.1-.5.6-1.2 1-2 1.3-.8.3-1.7.5-2.6.5-.7 0-1.4-.1-2.1-.3-.7-.2-1.3-.5-1.8-.9s-1-.8-1.3-1.3c-.4-.5-.6-1.1-.7-1.7h3.4c.1.2.2.4.4.6.2.2.4.3.6.4.2.1.5.2.7.2.2 0 .5.1.7.1 1.1 0 1.9-.3 2.4-1s.8-1.5.8-2.6v-.6c-.5.5-1 .8-1.6 1.1-.6.2-1.3.4-2 .4-.8 0-1.5-.2-2.2-.5-.7-.3-1.3-.8-1.8-1.3-.5-.6-.9-1.2-1.3-2-.3-.8-.5-1.6-.5-2.5 0-.9.2-1.7.5-2.5s.7-1.5 1.3-2c.5-.6 1.1-1 1.8-1.3.7-.3 1.4-.5 2.2-.5.8 0 1.4.1 2.1.4.6.3 1.2.7 1.7 1.2v-1.3h3v11.3zm-3.4-6.8c-.2-.4-.4-.8-.7-1.1-.3-.3-.6-.6-1-.7-.4-.2-.8-.3-1.2-.3-.4 0-.8.1-1.2.3-.4.2-.7.4-1 .7-.3.3-.5.7-.7 1.1-.2.4-.2.9-.2 1.4 0 .5.1.9.2 1.4.2.4.4.8.7 1.1.3.3.6.5 1 .7.4.2.8.3 1.2.3.4 0 .8-.1 1.2-.3.4-.2.7-.4 1-.7.3-.3.5-.7.7-1.1.2-.4.2-.9.2-1.3.1-.6 0-1-.2-1.5zM46.3 25.1h-3.1V18c0-.2 0-.4-.1-.7 0-.3-.1-.5-.3-.8-.1-.3-.4-.5-.7-.7-.3-.2-.7-.3-1.2-.3-.7 0-1.3.2-1.7.7-.4.5-.7 1-.7 1.7V25h-3.1V12.9h3v1.2c.4-.5.9-.8 1.4-1.1.5-.3 1.1-.4 1.8-.4s1.4.1 1.9.4c.6.3 1.1.6 1.5 1.1.4.5.7 1 1 1.7.2.7.3 1.4.3 2.2v7.1zM48.5 12.9h3.1v12.2h-3.1zM59.9 12.9v2.8h-2.2v9.4h-3.1v-9.4h-1.5v-2.8h1.5c0-.8.1-1.5.4-2.2.2-.7.6-1.2 1.1-1.7.5-.5 1-.8 1.7-1 .7-.2 1.4-.3 2.3-.2v2.9c-.8-.1-1.3.1-1.7.4-.4.3-.6.9-.6 1.8h2.1zM64.8 25.1h-3.1V7.7h3.1v17.4zM73.2 27.3c-.3.8-.6 1.4-1 1.9s-.8.8-1.3 1.1c-.5.2-1 .4-1.5.4-.6.1-1.2.1-1.8 0v-2.8h1c.3 0 .5-.1.8-.3.2-.1.4-.3.6-.5.2-.2.3-.5.4-.9l.4-.9-4.7-12.4h3.3l3 8.8 2.9-8.8h3.3l-5.4 14.4z"/><circle cx="50.1" cy="2.2" r="1.8"/></svg>